mtllib model_11.mtl
o model_11
v 234.2825469970703 134.24229431152344 28.793418884277344 
v 234.14845275878906 134.32101440429688 31.312232971191406 
v 235.891845703125 128.41758728027344 25.681943893432617 
v 235.0872039794922 128.73243713378906 35.0163688659668 
v 221.005859375 133.61260986328125 25.38561248779297 
v 221.27406311035156 137.3120880126953 29.978742599487305 
v 222.74925231933594 133.61260986328125 23.459461212158203 
v 225.43142700195312 137.23336791992188 23.75579261779785 
v 228.11358642578125 127.94530487060547 20.347986221313477 
v 219.66477966308594 127.78788757324219 24.496620178222656 
v 225.1632080078125 133.69131469726562 22.422304153442383 
v 222.74925231933594 133.61260986328125 23.459461212158203 
v 234.14845275878906 134.32101440429688 31.312232971191406 
v 232.27093505859375 137.5482177734375 26.867267608642578 
v 233.07557678222656 134.39971923828125 33.53471374511719 
v 230.39341735839844 137.78436279296875 34.127376556396484 
v 235.891845703125 128.41758728027344 25.681943893432617 
v 228.11358642578125 127.94530487060547 20.347986221313477 
v 232.13682556152344 134.00616455078125 24.200288772583008 
v 230.1251983642578 133.84873962402344 22.86680030822754 
v 231.33216857910156 134.39971923828125 35.31269836425781 
v 229.05233764648438 134.32101440429688 36.498023986816406 
v 235.0872039794922 128.73243713378906 35.0163688659668 
v 226.63839721679688 128.57501220703125 39.165000915527344 
v 224.09033203125 134.16358947753906 36.053524017333984 
v 221.94461059570312 134.00616455078125 34.571868896484375 
v 226.63839721679688 128.57501220703125 39.165000915527344 
v 218.86012268066406 128.1027374267578 33.83104705810547 
v 219.7988739013672 133.77003479003906 30.126909255981445 
v 219.9329833984375 133.69131469726562 27.608095169067383 
v 218.86012268066406 128.1027374267578 33.83104705810547 
v 219.66477966308594 127.78788757324219 24.496620178222656 
v 232.27093505859375 137.5482177734375 26.867267608642578 
v 232.13682556152344 134.00616455078125 24.200288772583008 
v 225.43142700195312 137.23336791992188 23.75579261779785 
v 230.1251983642578 133.84873962402344 22.86680030822754 
v 220.46942138671875 133.84873962402344 32.645721435546875 
v 221.8105010986328 137.3907928466797 31.90489387512207 
v 219.7988739013672 133.77003479003906 30.126909255981445 
v 221.27406311035156 137.3120880126953 29.978742599487305 
v 226.50428771972656 134.24229431152344 36.64618682861328 
v 229.05233764648438 134.32101440429688 36.498023986816406 
v 230.39341735839844 137.78436279296875 34.127376556396484 
v 231.33216857910156 134.39971923828125 35.31269836425781 
v 226.63839721679688 128.57501220703125 39.165000915527344 
v 218.86012268066406 128.1027374267578 33.83104705810547 
v 235.0872039794922 128.73243713378906 35.0163688659668 
v 228.11358642578125 127.94530487060547 20.347986221313477 
v 235.891845703125 128.41758728027344 25.681943893432617 
v 235.0872039794922 128.73243713378906 35.0163688659668 
v 219.66477966308594 127.78788757324219 24.496620178222656 
v 228.11358642578125 127.94530487060547 20.347986221313477 
v 235.0872039794922 128.73243713378906 35.0163688659668 
v 218.86012268066406 128.1027374267578 33.83104705810547 
v 219.66477966308594 127.78788757324219 24.496620178222656 
v 235.0872039794922 128.73243713378906 35.0163688659668 
v 226.50428771972656 134.24229431152344 36.64618682861328 
v 226.63839721679688 128.57501220703125 39.165000915527344 
v 226.63839721679688 128.57501220703125 39.165000915527344 
v 233.07557678222656 134.39971923828125 33.53471374511719 
v 231.33216857910156 134.39971923828125 35.31269836425781 
v 235.0872039794922 128.73243713378906 35.0163688659668 
v 235.0872039794922 128.73243713378906 35.0163688659668 
v 233.6120147705078 134.16358947753906 26.274606704711914 
v 235.891845703125 128.41758728027344 25.681943893432617 
v 235.891845703125 128.41758728027344 25.681943893432617 
v 227.5771484375 133.77003479003906 22.125972747802734 
v 228.11358642578125 127.94530487060547 20.347986221313477 
v 228.11358642578125 127.94530487060547 20.347986221313477 
v 221.005859375 133.61260986328125 25.38561248779297 
v 219.66477966308594 127.78788757324219 24.496620178222656 
v 219.66477966308594 127.78788757324219 24.496620178222656 
v 220.46942138671875 133.84873962402344 32.645721435546875 
v 218.86012268066406 128.1027374267578 33.83104705810547 
v 218.86012268066406 128.1027374267578 33.83104705810547 
v 221.8105010986328 137.3907928466797 31.90489387512207 
v 230.39341735839844 137.78436279296875 34.127376556396484 
v 232.27093505859375 137.5482177734375 26.867267608642578 
v 221.8105010986328 137.3907928466797 31.90489387512207 
v 230.39341735839844 137.78436279296875 34.127376556396484 
v 225.43142700195312 137.23336791992188 23.75579261779785 
v 232.27093505859375 137.5482177734375 26.867267608642578 
v 221.27406311035156 137.3120880126953 29.978742599487305 
v 225.43142700195312 137.23336791992188 23.75579261779785 
v 221.94461059570312 134.00616455078125 34.571868896484375 
v 224.09033203125 134.16358947753906 36.053524017333984 
v 221.8105010986328 137.3907928466797 31.90489387512207 
v 226.50428771972656 134.24229431152344 36.64618682861328 
v 221.8105010986328 137.3907928466797 31.90489387512207 
v 231.33216857910156 134.39971923828125 35.31269836425781 
v 233.07557678222656 134.39971923828125 33.53471374511719 
v 230.39341735839844 137.78436279296875 34.127376556396484 
v 234.2825469970703 134.24229431152344 28.793418884277344 
v 232.27093505859375 137.5482177734375 26.867267608642578 
v 233.6120147705078 134.16358947753906 26.274606704711914 
v 232.27093505859375 137.5482177734375 26.867267608642578 
v 232.27093505859375 137.5482177734375 26.867267608642578 
v 227.5771484375 133.77003479003906 22.125972747802734 
v 225.43142700195312 137.23336791992188 23.75579261779785 
v 225.1632080078125 133.69131469726562 22.422304153442383 
v 225.43142700195312 137.23336791992188 23.75579261779785 
v 225.43142700195312 137.23336791992188 23.75579261779785 
v 219.9329833984375 133.69131469726562 27.608095169067383 
v 221.27406311035156 137.3120880126953 29.978742599487305 
v 221.27406311035156 137.3120880126953 29.978742599487305 
v 221.8105010986328 137.3907928466797 31.90489387512207 
vn 3.5952460765838623 1.0938796997070312 -0.19860464334487915 
vn 3.5317161083221436 1.1253035068511963 0.6499888896942139 
vn 3.256049156188965 1.0149599313735962 -1.5905380249023438 
vn 2.954150438308716 1.187890887260437 2.0059218406677246 
vn -2.2555196285247803 2.415449380874634 -1.8000130653381348 
vn -2.320094108581543 2.9531545639038086 -0.24052628874778748 
vn -2.1305360794067383 2.0175437927246094 -2.3562991619110107 
vn -0.7180944085121155 2.9531545639038086 -2.21924090385437 
vn 0.2624405026435852 0.7271105647087097 -3.682967185974121 
vn -3.060466766357422 0.6300730109214783 -2.0972275733947754 
vn -1.2191438674926758 0.6300730109214783 -3.504070281982422 
vn -2.0032970905303955 0.5976276397705078 -3.1291298866271973 
vn 2.6331634521484375 2.5633668899536133 0.8108091950416565 
vn 1.9307775497436523 3.0425734519958496 -1.0847384929656982 
vn 2.749485492706299 2.140873432159424 1.4208457469940186 
vn 1.188402771949768 3.1088757514953613 1.7562466859817505 
vn 3.256049156188965 1.0149599313735962 -1.5905380249023438 
vn 0.2624405026435852 0.7271105647087097 -3.682967185974121 
vn 2.364017963409424 0.8717091679573059 -2.7952377796173096 
vn 1.6756170988082886 0.8075962662696838 -3.2713770866394043 
vn 1.9055373668670654 1.1722773313522339 3.0259716510772705 
vn 1.1243607997894287 1.1409833431243896 3.4052579402923584 
vn 2.954150438308716 1.187890887260437 2.0059218406677246 
vn -0.3047896921634674 1.0938796997070312 3.5878045558929443 
vn -1.7358300685882568 0.9673731923103333 3.1957619190216064 
vn -2.4387714862823486 0.9036670327186584 2.71985125541687 
vn -0.3047896921634674 1.0938796997070312 3.5878045558929443 
vn -3.31855845451355 0.8075962662696838 1.5801173448562622 
vn -3.7001850605010986 0.6786500811576843 0.09937836974859238 
vn -3.6339805126190186 0.6462778449058533 -0.7337049841880798 
vn -3.31855845451355 0.8075962662696838 1.5801173448562622 
vn -3.060466766357422 0.6300730109214783 -2.0972275733947754 
vn 1.9307775497436523 3.0425734519958496 -1.0847384929656982 
vn 1.82892644405365 2.072753667831421 -2.5535333156585693 
vn -0.7180944085121155 2.9531545639038086 -2.21924090385437 
vn 1.2417806386947632 2.4655134677886963 -2.5575451850891113 
vn -3.1748809814453125 1.4496104717254639 1.4073280096054077 
vn -1.8788180351257324 3.0132832527160645 1.2457846403121948 
vn -3.4697375297546387 1.4344226121902466 0.25527602434158325 
vn -2.320094108581543 2.9531545639038086 -0.24052628874778748 
vn -0.5148692727088928 2.5391926765441895 2.7293262481689453 
vn 0.676159143447876 1.8625906705856323 3.199277639389038 
vn 1.188402771949768 3.1088757514953613 1.7562466859817505 
vn 1.9903079271316528 1.5100823640823364 2.8142738342285156 
vn 0.1468879133462906 -3.7580463886260986 0.1316121518611908 
vn 0.1468879133462906 -3.7580463886260986 0.1316121518611908 
vn 0.1468879133462906 -3.7580463886260986 0.1316121518611908 
vn 0.1468879133462906 -3.7580463886260986 0.1316121518611908 
vn 0.1468879133462906 -3.7580463886260986 0.1316121518611908 
vn 0.1468879133462906 -3.7580463886260986 0.1316121518611908 
vn 0.1468879133462906 -3.7580463886260986 0.1316121518611908 
vn 0.1468879133462906 -3.7580463886260986 0.1316121518611908 
vn 0.1468879133462906 -3.7580463886260986 0.1316121518611908 
vn 0.1468879133462906 -3.7580463886260986 0.1316121518611908 
vn 0.1468879133462906 -3.7580463886260986 0.1316121518611908 
vn 0.1468879133462906 -3.7580463886260986 0.1316121518611908 
vn -0.34027019143104553 1.4950069189071655 3.436711072921753 
vn -0.3047896921634674 1.0938796997070312 3.5878045558929443 
vn -0.3047896921634674 1.0938796997070312 3.5878045558929443 
vn 2.8185431957244873 1.5850213766098022 1.9249242544174194 
vn 1.9055373668670654 1.1722773313522339 3.0259716510772705 
vn 2.954150438308716 1.187890887260437 2.0059218406677246 
vn 2.954150438308716 1.187890887260437 2.0059218406677246 
vn 3.110642671585083 1.4039649963378906 -1.5857478380203247 
vn 3.256049156188965 1.0149599313735962 -1.5905380249023438 
vn 3.256049156188965 1.0149599313735962 -1.5905380249023438 
vn 0.23424550890922546 1.1409833431243896 -3.5784213542938232 
vn 0.2624405026435852 0.7271105647087097 -3.682967185974121 
vn 0.2624405026435852 0.7271105647087097 -3.682967185974121 
vn -2.9736452102661133 1.0465880632400513 -2.0552127361297607 
vn -3.060466766357422 0.6300730109214783 -2.0972275733947754 
vn -3.060466766357422 0.6300730109214783 -2.0972275733947754 
vn -3.247084140777588 1.2190498113632202 1.460196614265442 
vn -3.31855845451355 0.8075962662696838 1.5801173448562622 
vn -3.31855845451355 0.8075962662696838 1.5801173448562622 
vn -1.8788180351257324 3.0132832527160645 1.2457846403121948 
vn 1.188402771949768 3.1088757514953613 1.7562466859817505 
vn 1.9307775497436523 3.0425734519958496 -1.0847384929656982 
vn -1.8788180351257324 3.0132832527160645 1.2457846403121948 
vn 1.188402771949768 3.1088757514953613 1.7562466859817505 
vn -0.7180944085121155 2.9531545639038086 -2.21924090385437 
vn 1.9307775497436523 3.0425734519958496 -1.0847384929656982 
vn -2.320094108581543 2.9531545639038086 -0.24052628874778748 
vn -0.7180944085121155 2.9531545639038086 -2.21924090385437 
vn -2.271317720413208 1.805158257484436 2.3967337608337402 
vn -1.0982011556625366 2.5270326137542725 2.563176155090332 
vn -1.8788180351257324 3.0132832527160645 1.2457846403121948 
vn -0.5148692727088928 2.5391926765441895 2.7293262481689453 
vn -1.8788180351257324 3.0132832527160645 1.2457846403121948 
vn 1.9903079271316528 1.5100823640823364 2.8142738342285156 
vn 2.749485492706299 2.140873432159424 1.4208457469940186 
vn 1.188402771949768 3.1088757514953613 1.7562466859817505 
vn 3.2701809406280518 1.84828519821167 -0.22709119319915771 
vn 1.9307775497436523 3.0425734519958496 -1.0847384929656982 
vn 3.088672399520874 1.479902982711792 -1.559423565864563 
vn 1.9307775497436523 3.0425734519958496 -1.0847384929656982 
vn 1.9307775497436523 3.0425734519958496 -1.0847384929656982 
vn 0.32606980204582214 1.7762342691421509 -3.3015878200531006 
vn -0.7180944085121155 2.9531545639038086 -2.21924090385437 
vn -0.987509548664093 1.4192073345184326 -3.342526912689209 
vn -0.7180944085121155 2.9531545639038086 -2.21924090385437 
vn -0.7180944085121155 2.9531545639038086 -2.21924090385437 
vn -3.16086483001709 1.7617212533950806 -1.0329971313476562 
vn -2.320094108581543 2.9531545639038086 -0.24052628874778748 
vn -2.320094108581543 2.9531545639038086 -0.24052628874778748 
vn -1.8788180351257324 3.0132832527160645 1.2457846403121948 
s on 
f 1//1 2//2 3//3 
f 2//2 4//4 3//3 
f 3//3 4//4 4//4 
f 4//4 5//5 4//4 
f 4//4 5//5 5//5 
f 5//5 6//6 5//5 
f 5//5 6//6 7//7 
f 6//6 8//8 7//7 
f 7//7 8//8 8//8 
f 8//8 9//9 8//8 
f 8//8 9//9 9//9 
f 9//9 10//10 9//9 
f 9//9 10//10 11//11 
f 10//10 12//12 11//11 
f 11//11 12//12 12//12 
f 12//12 13//13 12//12 
f 12//12 13//13 13//13 
f 13//13 14//14 13//13 
f 13//13 14//14 15//15 
f 14//14 16//16 15//15 
f 15//15 16//16 16//16 
f 16//16 17//17 16//16 
f 16//16 17//17 17//17 
f 17//17 18//18 17//17 
f 17//17 18//18 19//19 
f 18//18 20//20 19//19 
f 19//19 20//20 20//20 
f 20//20 21//21 20//20 
f 20//20 21//21 21//21 
f 21//21 22//22 21//21 
f 21//21 22//22 23//23 
f 22//22 24//24 23//23 
f 23//23 24//24 24//24 
f 24//24 25//25 24//24 
f 24//24 25//25 25//25 
f 25//25 26//26 25//25 
f 25//25 26//26 27//27 
f 26//26 28//28 27//27 
f 27//27 28//28 28//28 
f 28//28 29//29 28//28 
f 28//28 29//29 29//29 
f 29//29 30//30 29//29 
f 29//29 30//30 31//31 
f 30//30 32//32 31//31 
f 31//31 32//32 32//32 
f 32//32 33//33 32//32 
f 32//32 33//33 33//33 
f 33//33 34//34 33//33 
f 33//33 34//34 35//35 
f 34//34 36//36 35//35 
f 35//35 36//36 36//36 
f 36//36 37//37 36//36 
f 36//36 37//37 37//37 
f 37//37 38//38 37//37 
f 37//37 38//38 39//39 
f 38//38 40//40 39//39 
f 39//39 40//40 40//40 
f 40//40 41//41 40//40 
f 40//40 41//41 41//41 
f 41//41 42//42 41//41 
f 41//41 42//42 43//43 
f 42//42 44//44 43//43 
f 45//45 46//46 47//47 
f 48//48 49//49 50//50 
f 51//51 52//52 53//53 
f 54//54 55//55 56//56 
f 57//57 25//25 58//58 
f 22//22 57//57 59//59 
f 60//60 61//61 62//62 
f 2//2 60//60 63//63 
f 64//64 1//1 65//65 
f 19//19 64//64 66//66 
f 67//67 20//20 68//68 
f 11//11 67//67 69//69 
f 70//70 12//12 71//71 
f 30//30 70//70 72//72 
f 73//73 29//29 74//74 
f 26//26 73//73 75//75 
f 76//76 41//41 77//77 
f 78//78 79//79 80//80 
f 81//81 79//79 82//82 
f 83//83 79//79 84//84 
f 85//85 86//86 87//87 
f 86//86 88//88 89//89 
f 90//90 91//91 92//92 
f 13//13 93//93 94//94 
f 93//93 95//95 96//96 
f 95//95 34//34 97//97 
f 36//36 98//98 99//99 
f 98//98 100//100 101//101 
f 100//100 7//7 102//102 
f 5//5 103//103 104//104 
f 103//103 39//39 105//105 
f 37//37 85//85 106//106 

